<svg width="1989" height="1531" xmlns="http://www.w3.org/2000/svg" xmlns:xlink="http://www.w3.org/1999/xlink" xml:space="preserve" overflow="hidden"><defs><clipPath id="clip0"><rect x="1204" y="695" width="1989" height="1531"/></clipPath></defs><g clip-path="url(#clip0)" transform="translate(-1204 -695)"><path d="M1435.5 2072C1435.5 2042.45 1459.45 2018.5 1489 2018.5L2908 2018.5C2937.55 2018.5 2961.5 2042.45 2961.5 2072L2961.5 2072C2961.5 2101.55 2937.55 2125.5 2908 2125.5L1489 2125.5C1459.45 2125.5 1435.5 2101.55 1435.5 2072Z" stroke="#262626" stroke-width="4.58333" stroke-linejoin="round" stroke-miterlimit="10" fill="none" fill-rule="evenodd"/><path d="M2536.5 2015.5 2546.5 2015.5 2546.5 1804.5 2536.5 1804.5 2536.5 2015.5" stroke="#000000" stroke-width="2.51614" stroke-miterlimit="8" fill-rule="evenodd"/><path d="M1811.5 885.5 1811.5 1164.5 2088.5 1164.5" stroke="#000000" stroke-width="2.51614" stroke-miterlimit="8" fill="none" fill-rule="evenodd"/><path d="M1454.5 900.5 1454.5 1242.5 2088.5 1242.5" stroke="#000000" stroke-width="2.51614" stroke-miterlimit="8" fill="none" fill-rule="evenodd"/><path d="M1562.5 1212.5 1590.5 1212.5C1590.5 1197.03 1577.97 1184.5 1562.5 1184.5 1547.02 1184.5 1534.5 1197.03 1534.5 1212.5L1562.5 1212.5" stroke="#000000" stroke-width="5.03228" stroke-miterlimit="8" fill="#FFFFFF" fill-rule="evenodd"/><path d="M0 0 0 342 634 342" stroke="#000000" stroke-width="2.51614" stroke-miterlimit="8" fill="none" fill-rule="evenodd" transform="matrix(-1 1.22465e-16 1.22465e-16 1 2944.5 900.5)"/><path d="M-0.00218945 27.498-0.00218945 54.9982C15.4743 54.9982 27.998 42.6982 27.998 27.498 27.998 12.2982 15.4743-0.00215036-0.00218945-0.00215036L-0.00218945 27.498" stroke="#000000" stroke-width="5.03228" stroke-miterlimit="8" fill="#FFFFFF" fill-rule="evenodd" transform="matrix(-1.83697e-16 -1 -1 1.83697e-16 2861.5 1212.5)"/><path d="M0 0 0 279 277 279" stroke="#000000" stroke-width="2.51614" stroke-miterlimit="8" fill="none" fill-rule="evenodd" transform="matrix(-1 1.22465e-16 1.22465e-16 1 2587.5 885.5)"/><path d="M1343.5 983.5 1565.5 983.5 1565.5 696.5 1343.5 696.5 1343.5 983.5" stroke="#000000" stroke-width="2.51614" stroke-miterlimit="8" fill="#FFFFFF" fill-rule="evenodd"/><path d="M1404.5 968.5 1504.5 968.5 1504.5 711.5 1404.5 711.5 1404.5 968.5" stroke="#595959" stroke-width="2.51614" stroke-miterlimit="8" fill="#FFFFFF" fill-rule="evenodd"/><path d="M1404.5 968.5 1504.5 968.5 1504.5 777.5 1404.5 777.5 1404.5 968.5" stroke="#595959" stroke-width="2.51614" stroke-miterlimit="8" fill="#00FFFF" fill-rule="evenodd"/><path d="M1701.5 983.5 1922.5 983.5 1922.5 696.5 1701.5 696.5 1701.5 983.5" stroke="#000000" stroke-width="2.51614" stroke-miterlimit="8" fill="#FFFFFF" fill-rule="evenodd"/><path d="M1758.5 968.5 1859.5 968.5 1859.5 711.5 1758.5 711.5 1758.5 968.5" stroke="#595959" stroke-width="2.51614" stroke-miterlimit="8" fill="#FFFFFF" fill-rule="evenodd"/><path d="M1758.5 965.5 1859.5 965.5 1859.5 948.5 1758.5 948.5 1758.5 965.5" stroke="#595959" stroke-width="2.51614" stroke-miterlimit="8" fill="#FF00FF" fill-rule="evenodd"/><path d="M2478.5 983.5 2700.5 983.5 2700.5 696.5 2478.5 696.5 2478.5 983.5" stroke="#000000" stroke-width="2.51614" stroke-miterlimit="8" fill="#FFFFFF" fill-rule="evenodd"/><path d="M2539.5 968.5 2640.5 968.5 2640.5 711.5 2539.5 711.5 2539.5 968.5" stroke="#595959" stroke-width="2.51614" stroke-miterlimit="8" fill="#FFFFFF" fill-rule="evenodd"/><path d="M2539.5 965.5 2640.5 965.5 2640.5 782.5 2539.5 782.5 2539.5 965.5" stroke="#595959" stroke-width="2.51614" stroke-miterlimit="8" fill="#FFFF00" fill-rule="evenodd"/><path d="M2833.5 983.5 3055.5 983.5 3055.5 696.5 2833.5 696.5 2833.5 983.5" stroke="#000000" stroke-width="2.51614" stroke-miterlimit="8" fill="#FFFFFF" fill-rule="evenodd"/><path d="M2894.5 968.5 2995.5 968.5 2995.5 711.5 2894.5 711.5 2894.5 968.5" stroke="#595959" stroke-width="2.51614" stroke-miterlimit="8" fill="#FFFFFF" fill-rule="evenodd"/><path d="M2894.5 965.5 2995.5 965.5 2995.5 807.5 2894.5 807.5 2894.5 965.5" stroke="#595959" stroke-width="2.51614" stroke-miterlimit="8" fill-rule="evenodd"/><path d="M2861.5 2072C2861.5 2097.69 2882.31 2118.5 2908 2118.5 2933.69 2118.5 2954.5 2097.69 2954.5 2072 2954.5 2046.31 2933.69 2025.5 2908 2025.5 2882.31 2025.5 2861.5 2046.31 2861.5 2072" stroke="#000000" stroke-width="5.03228" stroke-miterlimit="8" fill="#D8D8D8" fill-rule="evenodd"/><text font-family="Arial,Arial_MSFontService,sans-serif" font-weight="400" font-size="30" transform="matrix(1 0 0 1 2886.78 2082)">M2</text><path d="M1444.5 2072C1444.5 2097.69 1465.31 2118.5 1491 2118.5 1516.69 2118.5 1537.5 2097.69 1537.5 2072 1537.5 2046.31 1516.69 2025.5 1491 2025.5 1465.31 2025.5 1444.5 2046.31 1444.5 2072" stroke="#000000" stroke-width="5.03228" stroke-miterlimit="8" fill="#FFFFFF" fill-rule="evenodd"/><path d="M2091.5 1718.5 2312.5 1718.5 2312.5 1132.5 2091.5 1132.5 2091.5 1718.5" stroke="#000000" stroke-width="2.51614" stroke-miterlimit="8" fill="#FFFFFF" fill-rule="evenodd"/><path d="M2113.5 1688.5 2290.5 1688.5 2290.5 1164.5 2113.5 1164.5 2113.5 1688.5" stroke="#595959" stroke-width="2.51614" stroke-miterlimit="8" fill="#FFFFFF" fill-rule="evenodd"/><path d="M2113.5 1688.5 2290.5 1688.5 2290.5 1298.5 2113.5 1298.5 2113.5 1688.5" stroke="#595959" stroke-width="2.51614" stroke-miterlimit="8" fill="#FF9900" fill-rule="evenodd"/><path d="M2202.5 1721.5 2202.5 1808.86 2461.5 1808.86 2461.5 1836.85 2461.5 1962.5" stroke="#000000" stroke-width="2.51614" stroke-miterlimit="8" fill="none" fill-rule="evenodd"/><path d="M1904.5 2015.5 1995.5 2015.5 1995.5 1904.5 1904.5 1904.5 1904.5 2015.5" stroke="#595959" stroke-width="2.51614" stroke-miterlimit="8" fill="#F2F2F2" fill-rule="evenodd"/><path d="M1726.5 2015.5 1816.5 2015.5 1816.5 1904.5 1726.5 1904.5 1726.5 2015.5" stroke="#595959" stroke-width="2.51614" stroke-miterlimit="8" fill="#F2F2F2" fill-rule="evenodd"/><path d="M2275.5 2015.5 2365.5 2015.5 2365.5 1904.5 2275.5 1904.5 2275.5 2015.5" stroke="#595959" stroke-width="2.51614" stroke-miterlimit="8" fill="#F2F2F2" fill-rule="evenodd"/><path d="M2134.5 2015.5 2224.5 2015.5 2224.5 1904.5 2134.5 1904.5 2134.5 2015.5" stroke="#595959" stroke-width="2.51614" stroke-miterlimit="8" fill="#F2F2F2" fill-rule="evenodd"/><path d="M2416.5 2015.5 2506.5 2015.5 2506.5 1904.5 2416.5 1904.5 2416.5 2015.5" stroke="#595959" stroke-width="2.51614" stroke-miterlimit="8" fill="#FF9900" fill-rule="evenodd"/><path d="M1917.5 1134.5 1945.5 1134.5C1945.5 1119.03 1932.97 1106.5 1917.5 1106.5 1902.02 1106.5 1889.5 1119.03 1889.5 1134.5L1917.5 1134.5" stroke="#000000" stroke-width="5.03228" stroke-miterlimit="8" fill="#FFFFFF" fill-rule="evenodd"/><path d="M-0.00218945 27.998-0.00218945 55.9982C15.4743 55.9982 27.998 43.4745 27.998 27.998 27.998 12.5219 15.4743-0.00218945-0.00218945-0.00218945L-0.00218945 27.998" stroke="#000000" stroke-width="5.03228" stroke-miterlimit="8" fill="#FFFFFF" fill-rule="evenodd" transform="matrix(-1.83697e-16 -1 -1 1.83697e-16 2509.5 1134.5)"/><path d="M2305 1774.5 2332.5 1774.5C2332.5 1759.03 2320.2 1746.5 2305 1746.5 2289.8 1746.5 2277.5 1759.03 2277.5 1774.5L2305 1774.5" stroke="#000000" stroke-width="5.03228" stroke-miterlimit="8" fill="#FFFFFF" fill-rule="evenodd"/><text font-family="Arial,Arial_MSFontService,sans-serif" font-weight="400" font-size="30" transform="matrix(1 0 0 1 1435.13 770)">T1<tspan font-size="30" x="357.478" y="0">T2</tspan><tspan font-size="30" x="1135.37" y="0">T3</tspan><tspan font-size="30" x="1490.33" y="0">T4</tspan><tspan font-size="30" x="749.815" y="442">T5</tspan><tspan font-size="30" x="1013.57" y="1184">C</tspan><tspan font-size="30" x="872.591" y="1184">C</tspan><tspan font-size="30" x="731.614" y="1184">C</tspan><tspan font-size="30" x="502.526" y="1184">C</tspan><tspan font-size="30" x="323.787" y="1184">C</tspan></text><path d="M1497 1138C1497 1154.01 1509.99 1167 1526 1167 1542.01 1167 1555 1154.01 1555 1138 1555 1121.99 1542.01 1109 1526 1109 1509.99 1109 1497 1121.99 1497 1138" fill="#FF0000" fill-rule="evenodd"/><text font-family="Arial,Arial_MSFontService,sans-serif" font-weight="400" font-size="30" transform="matrix(1 0 0 1 1577.77 1144)">V1</text><path d="M1849 1055C1849 1071.01 1861.99 1084 1878 1084 1894.01 1084 1907 1071.01 1907 1055 1907 1038.99 1894.01 1026 1878 1026 1861.99 1026 1849 1038.99 1849 1055" fill="#FF0000" fill-rule="evenodd"/><text font-family="Arial,Arial_MSFontService,sans-serif" font-weight="400" font-size="30" transform="matrix(1 0 0 1 1930.21 1059)">V2</text><path d="M2416 1055C2416 1071.01 2428.76 1084 2444.5 1084 2460.24 1084 2473 1071.01 2473 1055 2473 1038.99 2460.24 1026 2444.5 1026 2428.76 1026 2416 1038.99 2416 1055" fill="#FF0000" fill-rule="evenodd"/><text font-family="Arial,Arial_MSFontService,sans-serif" font-weight="400" font-size="30" transform="matrix(1 0 0 1 2496.63 1059)">V3</text><path d="M2765 1138C2765 1154.01 2777.99 1167 2794 1167 2810.01 1167 2823 1154.01 2823 1138 2823 1121.99 2810.01 1109 2794 1109 2777.99 1109 2765 1121.99 2765 1138" fill="#FF0000" fill-rule="evenodd"/><text font-family="Arial,Arial_MSFontService,sans-serif" font-weight="400" font-size="30" transform="matrix(1 0 0 1 2846.56 1142)">V4</text><path d="M1270 943C1270 959.013 1282.99 972 1299 972 1315.01 972 1328 959.013 1328 943 1328 926.987 1315.01 914 1299 914 1282.99 914 1270 926.987 1270 943" fill="#BFBFBF" fill-rule="evenodd"/><text font-family="Arial,Arial_MSFontService,sans-serif" font-weight="400" font-size="30" transform="matrix(1 0 0 1 1222.81 953)">S1</text><path d="M2408 943C2408 959.013 2420.99 972 2437 972 2453.01 972 2466 959.013 2466 943 2466 926.987 2453.01 914 2437 914 2420.99 914 2408 926.987 2408 943" fill="#BFBFBF" fill-rule="evenodd"/><text font-family="Arial,Arial_MSFontService,sans-serif" font-weight="400" font-size="30" transform="matrix(1 0 0 1 2360.69 953)">S3</text><path d="M2013 1299C2013 1315.01 2025.99 1328 2042 1328 2058.01 1328 2071 1315.01 2071 1299 2071 1282.99 2058.01 1270 2042 1270 2025.99 1270 2013 1282.99 2013 1299" fill="#77D95C" fill-rule="evenodd"/><text font-family="Arial,Arial_MSFontService,sans-serif" font-weight="400" font-size="30" transform="matrix(1 0 0 1 1962.94 1291)">S5</text><path d="M2013 1661.5C2013 1677.24 2025.99 1690 2042 1690 2058.01 1690 2071 1677.24 2071 1661.5 2071 1645.76 2058.01 1633 2042 1633 2025.99 1633 2013 1645.76 2013 1661.5" fill="#BFBFBF" fill-rule="evenodd"/><text font-family="Arial,Arial_MSFontService,sans-serif" font-weight="400" font-size="30" transform="matrix(1 0 0 1 1962.94 1665)">S6</text><path d="M1932 943C1932 959.013 1944.99 972 1961 972 1977.01 972 1990 959.013 1990 943 1990 926.987 1977.01 914 1961 914 1944.99 914 1932 926.987 1932 943" fill="#77D95C" fill-rule="evenodd"/><text font-family="Arial,Arial_MSFontService,sans-serif" font-weight="400" font-size="30" transform="matrix(1 0 0 1 2003.21 953)">S2</text><path d="M3065 943C3065 959.013 3077.99 972 3094 972 3110.01 972 3123 959.013 3123 943 3123 926.987 3110.01 914 3094 914 3077.99 914 3065 926.987 3065 943" fill="#BFBFBF" fill-rule="evenodd"/><text font-family="Arial,Arial_MSFontService,sans-serif" font-weight="400" font-size="30" transform="matrix(1 0 0 1 3136.07 953)">S4</text><path d="M2514 1964C2514 1980.01 2526.99 1993 2543 1993 2559.01 1993 2572 1980.01 2572 1964 2572 1947.99 2559.01 1935 2543 1935 2526.99 1935 2514 1947.99 2514 1964" fill="#77D95C" fill-rule="evenodd"/><text font-family="Arial,Arial_MSFontService,sans-serif" font-weight="400" font-size="30" transform="matrix(1 0 0 1 2582.23 1956)">S7</text><path d="M2458 2165C2458 2181.01 2470.99 2194 2487 2194 2503.01 2194 2516 2181.01 2516 2165 2516 2148.99 2503.01 2136 2487 2136 2470.99 2136 2458 2148.99 2458 2165" fill="#77D95C" fill-rule="evenodd"/><text font-family="Arial,Arial_MSFontService,sans-serif" font-weight="400" font-size="30" transform="matrix(1 0 0 1 2400.97 2169)">S8</text><path d="M2423 1722C2423 1738.01 2435.99 1751 2452 1751 2468.01 1751 2481 1738.01 2481 1722 2481 1705.99 2468.01 1693 2452 1693 2435.99 1693 2423 1705.99 2423 1722" fill="#BFBFBF" fill-rule="evenodd"/><text font-family="Arial,Arial_MSFontService,sans-serif" font-weight="400" font-size="30" transform="matrix(1 0 0 1 2363.21 1726)">V5</text><path d="M2305.5 1806.5 2305.5 1774.5 2305.5 1801.56" stroke="#000000" stroke-width="5.03228" stroke-miterlimit="8" fill="none" fill-rule="evenodd"/><path d="M2481.5 1167.5 2481.5 1134.5 2481.5 1162.4" stroke="#000000" stroke-width="5.03228" stroke-miterlimit="8" fill="none" fill-rule="evenodd"/><path d="M2833.5 1245.5 2833.5 1212.5 2833.5 1240.4" stroke="#000000" stroke-width="5.03228" stroke-miterlimit="8" fill="none" fill-rule="evenodd"/><path d="M1917.5 1167.5 1917.5 1134.5 1917.5 1162.4" stroke="#000000" stroke-width="5.03228" stroke-miterlimit="8" fill="none" fill-rule="evenodd"/><path d="M1565.5 1245.5 1565.5 1212.5 1590.5 1213.77" stroke="#000000" stroke-width="5.03228" stroke-miterlimit="8" fill="none" fill-rule="evenodd"/><path d="M1519.5 1268.5 1610.5 1220.5" stroke="#000000" stroke-width="5.03228" stroke-miterlimit="8" fill="none" fill-rule="evenodd"/><path d="M1610.5 1268.5 1519.5 1220.5" stroke="#000000" stroke-width="5.03228" stroke-miterlimit="8" fill="none" fill-rule="evenodd"/><path d="M1519.5 1220.5 1519.5 1268.5" stroke="#000000" stroke-width="5.03228" stroke-miterlimit="8" fill="none" fill-rule="evenodd"/><path d="M1610.5 1220.5 1610.5 1268.5" stroke="#000000" stroke-width="5.03228" stroke-miterlimit="8" fill="none" fill-rule="evenodd"/><path d="M2879.5 1268.5 2788.5 1220.5" stroke="#000000" stroke-width="5.03228" stroke-miterlimit="8" fill="none" fill-rule="evenodd"/><path d="M2788.5 1268.5 2879.5 1220.5" stroke="#000000" stroke-width="5.03228" stroke-miterlimit="8" fill="none" fill-rule="evenodd"/><path d="M2879.5 1220.5 2879.5 1268.5" stroke="#000000" stroke-width="5.03228" stroke-miterlimit="8" fill="none" fill-rule="evenodd"/><path d="M2788.5 1220.5 2788.5 1268.5" stroke="#000000" stroke-width="5.03228" stroke-miterlimit="8" fill="none" fill-rule="evenodd"/><path d="M2489.5 1872.5 2489.5 2224.5" stroke="#000000" stroke-width="2.51614" stroke-miterlimit="8" stroke-dasharray="5.66132 5.66132" fill="none" fill-rule="evenodd"/><path d="M1872.5 1192.5 1962.5 1142.5" stroke="#000000" stroke-width="5.03228" stroke-miterlimit="8" fill="none" fill-rule="evenodd"/><path d="M1962.5 1192.5 1872.5 1142.5" stroke="#000000" stroke-width="5.03228" stroke-miterlimit="8" fill="none" fill-rule="evenodd"/><path d="M1872.5 1142.5 1872.5 1192.5" stroke="#000000" stroke-width="5.03228" stroke-miterlimit="8" fill="none" fill-rule="evenodd"/><path d="M1962.5 1142.5 1962.5 1192.5" stroke="#000000" stroke-width="5.03228" stroke-miterlimit="8" fill="none" fill-rule="evenodd"/><path d="M2526.5 1192.5 2436.5 1142.5" stroke="#000000" stroke-width="5.03228" stroke-miterlimit="8" fill="none" fill-rule="evenodd"/><path d="M2436.5 1192.5 2526.5 1142.5" stroke="#000000" stroke-width="5.03228" stroke-miterlimit="8" fill="none" fill-rule="evenodd"/><path d="M2526.5 1142.5 2526.5 1192.5" stroke="#000000" stroke-width="5.03228" stroke-miterlimit="8" fill="none" fill-rule="evenodd"/><path d="M2436.5 1142.5 2436.5 1192.5" stroke="#000000" stroke-width="5.03228" stroke-miterlimit="8" fill="none" fill-rule="evenodd"/><path d="M2259.5 1831.5 2350.5 1784.5" stroke="#000000" stroke-width="5.03228" stroke-miterlimit="8" fill="none" fill-rule="evenodd"/><path d="M2350.5 1831.5 2259.5 1784.5" stroke="#000000" stroke-width="5.03228" stroke-miterlimit="8" fill="none" fill-rule="evenodd"/><path d="M2259.5 1784.5 2259.5 1831.5" stroke="#000000" stroke-width="5.03228" stroke-miterlimit="8" fill="none" fill-rule="evenodd"/><path d="M2350.5 1784.5 2350.5 1831.5" stroke="#000000" stroke-width="5.03228" stroke-miterlimit="8" fill="none" fill-rule="evenodd"/><path d="M1514.5 1132.5 1537.5 1132.5" stroke="#B2E3A4" stroke-width="2.51614" stroke-miterlimit="8" fill="none" fill-rule="evenodd"/><path d="M1514.5 1139.5 1537.5 1139.5" stroke="#B2E3A4" stroke-width="2.51614" stroke-miterlimit="8" fill="none" fill-rule="evenodd"/><path d="M1514.5 1147.5 1537.5 1147.5" stroke="#B2E3A4" stroke-width="2.51614" stroke-miterlimit="8" fill="none" fill-rule="evenodd"/><path d="M1869.5 1049.5 1892.5 1049.5" stroke="#B2E3A4" stroke-width="2.51614" stroke-miterlimit="8" fill="none" fill-rule="evenodd"/><path d="M1869.5 1056.5 1892.5 1056.5" stroke="#B2E3A4" stroke-width="2.51614" stroke-miterlimit="8" fill="none" fill-rule="evenodd"/><path d="M1869.5 1064.5 1892.5 1064.5" stroke="#B2E3A4" stroke-width="2.51614" stroke-miterlimit="8" fill="none" fill-rule="evenodd"/><path d="M2433.5 1049.5 2458.5 1049.5" stroke="#B2E3A4" stroke-width="2.51614" stroke-miterlimit="8" fill="none" fill-rule="evenodd"/><path d="M2433.5 1056.5 2458.5 1056.5" stroke="#B2E3A4" stroke-width="2.51614" stroke-miterlimit="8" fill="none" fill-rule="evenodd"/><path d="M2433.5 1064.5 2458.5 1064.5" stroke="#B2E3A4" stroke-width="2.51614" stroke-miterlimit="8" fill="none" fill-rule="evenodd"/><path d="M2783.5 1132.5 2808.5 1132.5" stroke="#B2E3A4" stroke-width="2.51614" stroke-miterlimit="8" fill="none" fill-rule="evenodd"/><path d="M2783.5 1139.5 2808.5 1139.5" stroke="#B2E3A4" stroke-width="2.51614" stroke-miterlimit="8" fill="none" fill-rule="evenodd"/><path d="M2783.5 1147.5 2808.5 1147.5" stroke="#B2E3A4" stroke-width="2.51614" stroke-miterlimit="8" fill="none" fill-rule="evenodd"/><path d="M2441.5 1716.5 2463.5 1716.5" stroke="#B2E3A4" stroke-width="2.51614" stroke-miterlimit="8" fill="none" fill-rule="evenodd"/><path d="M2441.5 1723.5 2463.5 1723.5" stroke="#B2E3A4" stroke-width="2.51614" stroke-miterlimit="8" fill="none" fill-rule="evenodd"/><path d="M2441.5 1731.5 2463.5 1731.5" stroke="#B2E3A4" stroke-width="2.51614" stroke-miterlimit="8" fill="none" fill-rule="evenodd"/></g></svg>